<svg width="15" height="30" viewBox="0 0 15 30" fill="none" xmlns="http://www.w3.org/2000/svg">
<path d="M14.8191 1.87798C14.8187 2.37566 14.6206 2.8528 14.2685 3.20449L4.66761 12.8054C4.377 13.0959 4.14648 13.4408 3.98921 13.8205C3.83193 14.2001 3.75098 14.607 3.75098 15.0179C3.75098 15.4288 3.83193 15.8357 3.98921 16.2153C4.14648 16.595 4.377 16.9399 4.66761 17.2304L14.256 26.8188C14.5979 27.1728 14.7871 27.647 14.7829 28.1392C14.7786 28.6314 14.5812 29.1022 14.2331 29.4502C13.8851 29.7982 13.4143 29.9957 12.9221 29.9999C12.4299 30.0042 11.9558 29.815 11.6017 29.4731L2.01334 19.8922C0.724084 18.6004 0 16.8499 0 15.0248C0 13.1997 0.724084 11.4492 2.01334 10.1574L11.6142 0.550226C11.8768 0.287532 12.2113 0.108616 12.5756 0.036116C12.9398 -0.036384 13.3174 0.000790883 13.6605 0.142937C14.0036 0.285082 14.2968 0.52581 14.503 0.834659C14.7093 1.14351 14.8193 1.5066 14.8191 1.87798V1.87798Z" fill="black"/>
</svg>
