<svg width="66" height="65" viewBox="0 0 66 65" fill="none" xmlns="http://www.w3.org/2000/svg">
<g clip-path="url(#clip0_596_24325)">
<path d="M51.9583 2.7085H14.0417C10.4515 2.7128 7.00964 4.14089 4.47101 6.67951C1.93239 9.21813 0.5043 12.66 0.5 16.2502L0.5 37.9168C0.5043 41.507 1.93239 44.9489 4.47101 47.4875C7.00964 50.0261 10.4515 51.4542 14.0417 51.4585H30.2917V56.8752H19.4583C18.74 56.8752 18.0512 57.1605 17.5433 57.6684C17.0353 58.1763 16.75 58.8652 16.75 59.5835C16.75 60.3018 17.0353 60.9907 17.5433 61.4986C18.0512 62.0065 18.74 62.2918 19.4583 62.2918H46.5417C47.26 62.2918 47.9488 62.0065 48.4567 61.4986C48.9647 60.9907 49.25 60.3018 49.25 59.5835C49.25 58.8652 48.9647 58.1763 48.4567 57.6684C47.9488 57.1605 47.26 56.8752 46.5417 56.8752H35.7083V51.4585H51.9583C55.5485 51.4542 58.9904 50.0261 61.529 47.4875C64.0676 44.9489 65.4957 41.507 65.5 37.9168V16.2502C65.4957 12.66 64.0676 9.21813 61.529 6.67951C58.9904 4.14089 55.5485 2.7128 51.9583 2.7085V2.7085ZM14.0417 8.12516H51.9583C54.1132 8.12516 56.1798 8.98119 57.7036 10.5049C59.2273 12.0287 60.0833 14.0953 60.0833 16.2502V35.2085H5.91667V16.2502C5.91667 14.0953 6.77269 12.0287 8.29642 10.5049C9.82016 8.98119 11.8868 8.12516 14.0417 8.12516V8.12516ZM51.9583 46.0418H14.0417C12.3672 46.0349 10.7358 45.5108 9.37061 44.5412C8.00542 43.5716 6.97314 42.2039 6.415 40.6252H59.585C59.0269 42.2039 57.9946 43.5716 56.6294 44.5412C55.2642 45.5108 53.6328 46.0349 51.9583 46.0418Z" fill="#7367F0"/>
</g>
<defs>
<clipPath id="clip0_596_24325">
<rect width="65" height="65" fill="white" transform="translate(0.5)"/>
</clipPath>
</defs>
</svg>
