<svg width="66" height="65" viewBox="0 0 66 65" fill="none" xmlns="http://www.w3.org/2000/svg">
<g clip-path="url(#clip0_596_24302)">
<path d="M54.6667 18.9583H49.9596C51.4909 17.6085 52.7064 15.9382 53.5199 14.066C54.3333 12.1938 54.7249 10.1655 54.6667 8.125C54.6667 7.4067 54.3813 6.71783 53.8734 6.20992C53.3655 5.70201 52.6766 5.41667 51.9583 5.41667C51.24 5.41667 50.5512 5.70201 50.0432 6.20992C49.5353 6.71783 49.25 7.4067 49.25 8.125C49.25 15.2262 42.8285 17.6854 37.9454 18.5277C39.7478 15.332 40.8328 11.7822 41.125 8.125C41.125 5.97012 40.269 3.90349 38.7452 2.37976C37.2215 0.856024 35.1549 0 33 0C30.8451 0 28.7785 0.856024 27.2548 2.37976C25.731 3.90349 24.875 5.97012 24.875 8.125C25.1672 11.7822 26.2522 15.332 28.0546 18.5277C23.1715 17.6854 16.75 15.2262 16.75 8.125C16.75 7.4067 16.4647 6.71783 15.9567 6.20992C15.4488 5.70201 14.76 5.41667 14.0417 5.41667C13.3234 5.41667 12.6345 5.70201 12.1266 6.20992C11.6187 6.71783 11.3333 7.4067 11.3333 8.125C11.2751 10.1655 11.6667 12.1938 12.4801 14.066C13.2936 15.9382 14.5091 17.6085 16.0404 18.9583H11.3333C8.46015 18.9583 5.70465 20.0997 3.67301 22.1313C1.64137 24.163 0.5 26.9185 0.5 29.7917L0.5 32.5C0.5 33.9366 1.07068 35.3143 2.0865 36.3302C3.10233 37.346 4.48008 37.9167 5.91667 37.9167V51.4583C5.92097 55.0485 7.34906 58.4904 9.88768 61.029C12.4263 63.5676 15.8682 64.9957 19.4583 65H46.5417C50.1318 64.9957 53.5737 63.5676 56.1123 61.029C58.6509 58.4904 60.079 55.0485 60.0833 51.4583V37.9167C61.5199 37.9167 62.8977 37.346 63.9135 36.3302C64.9293 35.3143 65.5 33.9366 65.5 32.5V29.7917C65.5 26.9185 64.3586 24.163 62.327 22.1313C60.2953 20.0997 57.5398 18.9583 54.6667 18.9583ZM33 5.41667C33.7183 5.41667 34.4072 5.70201 34.9151 6.20992C35.423 6.71783 35.7083 7.4067 35.7083 8.125C35.3814 11.0035 34.4591 13.7825 33 16.2852C31.5409 13.7825 30.6186 11.0035 30.2917 8.125C30.2917 7.4067 30.577 6.71783 31.0849 6.20992C31.5928 5.70201 32.2817 5.41667 33 5.41667ZM5.91667 29.7917C5.91667 28.3551 6.48735 26.9773 7.50317 25.9615C8.51899 24.9457 9.89674 24.375 11.3333 24.375H30.2917V32.5H5.91667V29.7917ZM11.3333 51.4583V37.9167H30.2917V59.5833H19.4583C17.3034 59.5833 15.2368 58.7273 13.7131 57.2036C12.1894 55.6798 11.3333 53.6132 11.3333 51.4583ZM54.6667 51.4583C54.6667 53.6132 53.8106 55.6798 52.2869 57.2036C50.7632 58.7273 48.6965 59.5833 46.5417 59.5833H35.7083V37.9167H54.6667V51.4583ZM35.7083 32.5V24.375H54.6667C56.1033 24.375 57.481 24.9457 58.4968 25.9615C59.5126 26.9773 60.0833 28.3551 60.0833 29.7917V32.5H35.7083Z" fill="#7367F0"/>
</g>
<defs>
<clipPath id="clip0_596_24302">
<rect width="65" height="65" fill="white" transform="translate(0.5)"/>
</clipPath>
</defs>
</svg>
