<svg width="66" height="65" viewBox="0 0 66 65" fill="none" xmlns="http://www.w3.org/2000/svg">
<g clip-path="url(#clip0_596_24294)">
<path d="M46.5417 0C45.8234 0 45.1345 0.285341 44.6266 0.793252C44.1187 1.30116 43.8333 1.99004 43.8333 2.70833C43.8333 10.6952 36.8377 13.5417 30.2917 13.5417H11.3333C8.46016 13.5417 5.70465 14.683 3.67301 16.7147C1.64137 18.7463 0.5 21.5018 0.5 24.375L0.5 29.7917C0.505915 31.4132 0.877709 33.0126 1.58767 34.4705C2.29764 35.9284 3.32747 37.2073 4.60042 38.2119L14.2746 59.8027C14.9626 61.3494 16.0842 62.6635 17.5037 63.5859C18.9231 64.5083 20.5795 64.9995 22.2723 65C23.6192 64.9991 24.9445 64.6614 26.1275 64.0176C27.3106 63.3738 28.3138 62.4444 29.046 61.3139C29.7781 60.1833 30.2159 58.8877 30.3195 57.5448C30.423 56.2019 30.1891 54.8544 29.639 53.625L23.6806 40.625H30.2917C36.8377 40.625 43.8333 43.4715 43.8333 51.4583C43.8333 52.1766 44.1187 52.8655 44.6266 53.3734C45.1345 53.8813 45.8234 54.1667 46.5417 54.1667C47.26 54.1667 47.9488 53.8813 48.4568 53.3734C48.9647 52.8655 49.25 52.1766 49.25 51.4583V2.70833C49.25 1.99004 48.9647 1.30116 48.4568 0.793252C47.9488 0.285341 47.26 0 46.5417 0V0ZM24.7044 55.8431C24.8838 56.2482 24.9592 56.6917 24.9239 57.1334C24.8885 57.5751 24.7435 58.0009 24.502 58.3724C24.2605 58.7438 23.93 59.0491 23.5407 59.2606C23.1513 59.472 22.7154 59.583 22.2723 59.5833C21.6261 59.5829 20.9939 59.3948 20.4525 59.0419C19.9112 58.689 19.4839 58.1865 19.2227 57.5954L11.6177 40.625H17.7223L24.7044 55.8431ZM43.8333 39.5417C39.9639 36.5603 35.1731 35.0272 30.2917 35.2083H11.3333C9.89675 35.2083 8.51899 34.6376 7.50317 33.6218C6.48735 32.606 5.91667 31.2283 5.91667 29.7917V24.375C5.91667 22.9384 6.48735 21.5607 7.50317 20.5448C8.51899 19.529 9.89675 18.9583 11.3333 18.9583H30.2917C35.1714 19.1433 39.9621 17.6151 43.8333 14.6385V39.5417ZM65.2292 41.8492C65.0703 42.1676 64.8502 42.4516 64.5816 42.6849C64.3129 42.9182 64.0009 43.0963 63.6633 43.209C63.3258 43.3217 62.9693 43.3668 62.6144 43.3416C62.2594 43.3165 61.9129 43.2216 61.5946 43.0625L56.1779 40.3542C55.5351 40.0331 55.0461 39.4698 54.8185 38.7882C54.591 38.1065 54.6435 37.3625 54.9646 36.7196C55.2857 36.0767 55.849 35.5877 56.5306 35.3602C57.2122 35.1326 57.9563 35.1852 58.5992 35.5062L64.0158 38.2146C64.6554 38.5355 65.142 39.0964 65.3693 39.7749C65.5967 40.4533 65.5463 41.1942 65.2292 41.8356V41.8492ZM54.9646 17.4742C54.8055 17.1559 54.7106 16.8093 54.6855 16.4544C54.6603 16.0994 54.7054 15.743 54.8181 15.4054C54.9307 15.0679 55.1088 14.7559 55.3422 14.4872C55.5755 14.2185 55.8595 13.9985 56.1779 13.8396L61.5946 11.1313C62.2375 10.8102 62.9816 10.7576 63.6632 10.9852C64.3448 11.2127 64.9081 11.7017 65.2292 12.3446C65.5503 12.9875 65.6028 13.7315 65.3753 14.4132C65.1477 15.0948 64.6587 15.6581 64.0158 15.9792L58.5992 18.6875C58.2809 18.8466 57.9344 18.9415 57.5794 18.9666C57.2244 18.9918 56.868 18.9467 56.5304 18.834C56.1929 18.7213 55.8809 18.5432 55.6122 18.3099C55.3435 18.0766 55.1235 17.7926 54.9646 17.4742ZM54.6667 27.0833C54.6667 26.365 54.952 25.6762 55.4599 25.1683C55.9678 24.6603 56.6567 24.375 57.375 24.375H62.7917C63.51 24.375 64.1988 24.6603 64.7068 25.1683C65.2147 25.6762 65.5 26.365 65.5 27.0833C65.5 27.8016 65.2147 28.4905 64.7068 28.9984C64.1988 29.5063 63.51 29.7917 62.7917 29.7917H57.375C56.6567 29.7917 55.9678 29.5063 55.4599 28.9984C54.952 28.4905 54.6667 27.8016 54.6667 27.0833Z" fill="#7367F0"/>
</g>
<defs>
<clipPath id="clip0_596_24294">
<rect width="65" height="65" fill="white" transform="translate(0.5)"/>
</clipPath>
</defs>
</svg>
