<svg width="66" height="65" viewBox="0 0 66 65" fill="none" xmlns="http://www.w3.org/2000/svg">
<g clip-path="url(#clip0_596_24318)">
<path d="M32.9998 2.70833V18.9583C32.9959 22.0789 31.9163 25.1027 29.9429 27.52C27.9695 29.9374 25.2231 31.6006 22.1665 32.2292V62.2916C22.1665 63.0099 21.8812 63.6988 21.3733 64.2067C20.8653 64.7146 20.1765 65 19.4582 65C18.7399 65 18.051 64.7146 17.5431 64.2067C17.0352 63.6988 16.7498 63.0099 16.7498 62.2916V32.2292C13.6932 31.6006 10.9468 29.9374 8.97345 27.52C7.00008 25.1027 5.92044 22.0789 5.9165 18.9583V2.70833C5.9165 1.99004 6.20185 1.30116 6.70976 0.793252C7.21767 0.285341 7.90654 0 8.62484 0C9.34313 0 10.032 0.285341 10.5399 0.793252C11.0478 1.30116 11.3332 1.99004 11.3332 2.70833V18.9583C11.3401 20.6328 11.8642 22.2642 12.8338 23.6294C13.8034 24.9946 15.1711 26.0268 16.7498 26.585V2.70833C16.7498 1.99004 17.0352 1.30116 17.5431 0.793252C18.051 0.285341 18.7399 0 19.4582 0C20.1765 0 20.8653 0.285341 21.3733 0.793252C21.8812 1.30116 22.1665 1.99004 22.1665 2.70833V26.585C23.7452 26.0268 25.1129 24.9946 26.0825 23.6294C27.0521 22.2642 27.5762 20.6328 27.5832 18.9583V2.70833C27.5832 1.99004 27.8685 1.30116 28.3764 0.793252C28.8843 0.285341 29.5732 0 30.2915 0C31.0098 0 31.6987 0.285341 32.2066 0.793252C32.7145 1.30116 32.9998 1.99004 32.9998 2.70833V2.70833ZM60.0832 27.0833C59.962 32.2304 58.6815 37.2838 56.337 41.8674C53.9924 46.451 50.6442 50.4468 46.5415 53.5573V62.2916C46.5415 63.0099 46.2562 63.6988 45.7483 64.2067C45.2404 64.7146 44.5515 65 43.8332 65C43.1149 65 42.426 64.7146 41.9181 64.2067C41.4102 63.6988 41.1248 63.0099 41.1248 62.2916V5.41666C41.1006 4.39904 41.3786 3.39708 41.9239 2.53752C42.4691 1.67795 43.257 0.999404 44.188 0.587708C45.2573 0.152656 46.4303 0.03854 47.5635 0.259307C48.6966 0.480074 49.741 1.02616 50.5688 1.83083C56.8504 8.72341 60.2549 17.7593 60.0832 27.0833V27.0833ZM54.6665 27.0833C54.7433 19.1537 51.8442 11.4836 46.5415 5.58729V46.2312C51.6172 41.1348 54.5281 34.2748 54.6665 27.0833Z" fill="#7367F0"/>
</g>
<defs>
<clipPath id="clip0_596_24318">
<rect width="65" height="65" fill="white" transform="translate(0.5)"/>
</clipPath>
</defs>
</svg>
