<svg width="66" height="65" viewBox="0 0 66 65" fill="none" xmlns="http://www.w3.org/2000/svg">
<g clip-path="url(#clip0_596_24310)">
<path d="M65.0561 23.8172C64.5021 22.0538 63.3953 20.5155 61.8994 19.4298C60.4035 18.344 58.5979 17.7686 56.7496 17.7884H44.9169L41.3229 6.58676C40.7577 4.82353 39.6472 3.28534 38.1514 2.19403C36.6556 1.10271 34.8518 0.514648 33.0002 0.514648C31.1486 0.514648 29.3448 1.10271 27.849 2.19403C26.3532 3.28534 25.2426 4.82353 24.6775 6.58676L21.0835 17.7884H9.25079C7.40843 17.791 5.61401 18.3758 4.12386 19.4592C2.6337 20.5426 1.52402 22.0692 0.953319 23.8209C0.38262 25.5727 0.380094 27.46 0.946102 29.2132C1.51211 30.9665 2.6177 32.496 4.10495 33.5834L13.7358 40.6251L10.0741 51.9649C9.48238 53.7236 9.47489 55.6265 10.0528 57.3899C10.6306 59.1533 11.7629 60.6826 13.2808 61.7501C14.7727 62.8518 16.5806 63.442 18.4352 63.4327C20.2897 63.4234 22.0917 62.8152 23.5725 61.6986L33.0002 54.7599L42.4306 61.6905C43.9198 62.7859 45.718 63.3808 47.5666 63.3898C49.4153 63.3988 51.2192 62.8214 52.719 61.7406C54.2187 60.6598 55.3372 59.1312 55.9135 57.3747C56.4898 55.6181 56.4943 53.7241 55.9263 51.9649L52.2646 40.6251L61.9063 33.5834C63.4105 32.5097 64.5291 30.9802 65.0964 29.2212C65.6637 27.4623 65.6495 25.5674 65.0561 23.8172ZM58.7104 29.2095L47.4871 37.413C47.0261 37.7493 46.6831 38.2226 46.507 38.7654C46.331 39.3081 46.3308 39.8926 46.5067 40.4355L50.7723 53.6251C50.9881 54.294 50.9863 55.0142 50.767 55.6821C50.5478 56.3499 50.1224 56.9311 49.552 57.3419C48.9816 57.7528 48.2957 57.9722 47.5927 57.9686C46.8898 57.965 46.2061 57.7386 45.64 57.3219L34.6035 49.1969C34.1387 48.8555 33.577 48.6714 33.0002 48.6714C32.4234 48.6714 31.8617 48.8555 31.3969 49.1969L20.3604 57.3219C19.7946 57.7442 19.109 57.9753 18.403 57.9817C17.697 57.9881 17.0073 57.7695 16.4339 57.3576C15.8605 56.9456 15.4332 56.3618 15.214 55.6907C14.9947 55.0196 14.9949 54.2961 15.2145 53.6251L19.4937 40.4355C19.6695 39.8926 19.6694 39.3081 19.4933 38.7654C19.3173 38.2226 18.9743 37.7493 18.5133 37.413L7.28996 29.2095C6.72474 28.7956 6.30475 28.2137 6.09 27.5469C5.87525 26.8801 5.87671 26.1625 6.09418 25.4966C6.31165 24.8307 6.734 24.2505 7.3009 23.839C7.8678 23.4274 8.55026 23.2056 9.25079 23.2051H23.0633C23.6367 23.2051 24.1953 23.0231 24.6586 22.6853C25.122 22.3475 25.4662 21.8714 25.6416 21.3255L29.8396 8.24155C30.055 7.57201 30.4774 6.98811 31.0459 6.5739C31.6143 6.15968 32.2995 5.93651 33.0029 5.93651C33.7063 5.93651 34.3915 6.15968 34.9599 6.5739C35.5284 6.98811 35.9508 7.57201 36.1662 8.24155L40.3642 21.3255C40.5396 21.8714 40.8838 22.3475 41.3472 22.6853C41.8105 23.0231 42.3691 23.2051 42.9425 23.2051H56.755C57.4555 23.2056 58.138 23.4274 58.7049 23.839C59.2718 24.2505 59.6941 24.8307 59.9116 25.4966C60.1291 26.1625 60.1306 26.8801 59.9158 27.5469C59.701 28.2137 59.2811 28.7956 58.7158 29.2095H58.7104Z" fill="#7367F0"/>
</g>
<defs>
<clipPath id="clip0_596_24310">
<rect width="65" height="65" fill="white" transform="translate(0.5)"/>
</clipPath>
</defs>
</svg>
