<svg width="66" height="65" viewBox="0 0 66 65" fill="none" xmlns="http://www.w3.org/2000/svg">
<g clip-path="url(#clip0_596_24332)">
<path d="M51.9583 5.41667H49.25V2.70833C49.25 1.99004 48.9647 1.30116 48.4567 0.793252C47.9488 0.285341 47.26 0 46.5417 0C45.8234 0 45.1345 0.285341 44.6266 0.793252C44.1187 1.30116 43.8333 1.99004 43.8333 2.70833V5.41667H22.1667V2.70833C22.1667 1.99004 21.8813 1.30116 21.3734 0.793252C20.8655 0.285341 20.1766 0 19.4583 0C18.74 0 18.0512 0.285341 17.5433 0.793252C17.0353 1.30116 16.75 1.99004 16.75 2.70833V5.41667H14.0417C10.4515 5.42097 7.00964 6.84906 4.47101 9.38768C1.93239 11.9263 0.5043 15.3682 0.5 18.9583L0.5 51.4583C0.5043 55.0485 1.93239 58.4904 4.47101 61.029C7.00964 63.5676 10.4515 64.9957 14.0417 65H51.9583C55.5485 64.9957 58.9904 63.5676 61.529 61.029C64.0676 58.4904 65.4957 55.0485 65.5 51.4583V18.9583C65.4957 15.3682 64.0676 11.9263 61.529 9.38768C58.9904 6.84906 55.5485 5.42097 51.9583 5.41667ZM5.91667 18.9583C5.91667 16.8034 6.77269 14.7368 8.29642 13.2131C9.82016 11.6894 11.8868 10.8333 14.0417 10.8333H51.9583C54.1132 10.8333 56.1798 11.6894 57.7036 13.2131C59.2273 14.7368 60.0833 16.8034 60.0833 18.9583V21.6667H5.91667V18.9583ZM51.9583 59.5833H14.0417C11.8868 59.5833 9.82016 58.7273 8.29642 57.2036C6.77269 55.6798 5.91667 53.6132 5.91667 51.4583V27.0833H60.0833V51.4583C60.0833 53.6132 59.2273 55.6798 57.7036 57.2036C56.1798 58.7273 54.1132 59.5833 51.9583 59.5833Z" fill="#7367F0"/>
<path d="M33 44.6875C35.2437 44.6875 37.0625 42.8687 37.0625 40.625C37.0625 38.3813 35.2437 36.5625 33 36.5625C30.7563 36.5625 28.9375 38.3813 28.9375 40.625C28.9375 42.8687 30.7563 44.6875 33 44.6875Z" fill="#7367F0"/>
<path d="M19.4585 44.6875C21.7022 44.6875 23.521 42.8687 23.521 40.625C23.521 38.3813 21.7022 36.5625 19.4585 36.5625C17.2148 36.5625 15.396 38.3813 15.396 40.625C15.396 42.8687 17.2148 44.6875 19.4585 44.6875Z" fill="#7367F0"/>
<path d="M46.5415 44.6875C48.7852 44.6875 50.604 42.8687 50.604 40.625C50.604 38.3813 48.7852 36.5625 46.5415 36.5625C44.2978 36.5625 42.479 38.3813 42.479 40.625C42.479 42.8687 44.2978 44.6875 46.5415 44.6875Z" fill="#7367F0"/>
</g>
<defs>
<clipPath id="clip0_596_24332">
<rect width="65" height="65" fill="white" transform="translate(0.5)"/>
</clipPath>
</defs>
</svg>
