<svg width="51" height="50" viewBox="0 0 51 50" fill="none" xmlns="http://www.w3.org/2000/svg">
<path d="M45.6563 33.4341L42.458 30.6997C42.6094 29.772 42.6875 28.8247 42.6875 27.8774C42.6875 26.9302 42.6094 25.9829 42.458 25.0552L45.6563 22.3208C45.8975 22.1143 46.0701 21.8392 46.1513 21.5322C46.2324 21.2252 46.2181 20.9008 46.1104 20.602L46.0664 20.4751C45.1859 18.0143 43.8675 15.7331 42.1748 13.7417L42.0869 13.6392C41.8816 13.3977 41.6079 13.2242 41.302 13.1413C40.996 13.0585 40.6721 13.0704 40.3731 13.1753L36.4033 14.5864C34.9385 13.3853 33.3027 12.438 31.5352 11.7739L30.7686 7.62353C30.7107 7.31124 30.5592 7.02394 30.3342 6.79979C30.1092 6.57565 29.8213 6.42528 29.5088 6.36865L29.377 6.34424C26.833 5.88525 24.1572 5.88525 21.6133 6.34424L21.4815 6.36865C21.1689 6.42528 20.881 6.57565 20.656 6.79979C20.431 7.02394 20.2795 7.31124 20.2217 7.62353L19.4502 11.7935C17.6967 12.4577 16.0638 13.4044 14.6162 14.5962L10.6172 13.1753C10.3182 13.0695 9.99411 13.0573 9.68797 13.1401C9.38184 13.223 9.10817 13.397 8.90333 13.6392L8.81544 13.7417C7.12475 15.7345 5.80653 18.0153 4.92384 20.4751L4.87989 20.602C4.66017 21.2124 4.84083 21.896 5.33399 22.3208L8.5713 25.0845C8.41993 26.0024 8.34669 26.9399 8.34669 27.8726C8.34669 28.8101 8.41993 29.7476 8.5713 30.6606L5.33399 33.4243C5.09276 33.6308 4.92011 33.9059 4.83899 34.2129C4.75788 34.5199 4.77214 34.8444 4.87989 35.1431L4.92384 35.27C5.80763 37.731 7.11622 40.0015 8.81544 42.0034L8.90333 42.106C9.10867 42.3474 9.38235 42.521 9.6883 42.6038C9.99425 42.6866 10.3181 42.6747 10.6172 42.5698L14.6162 41.1489C16.0713 42.3452 17.6973 43.2925 19.4502 43.9517L20.2217 48.1216C20.2795 48.4339 20.431 48.7212 20.656 48.9453C20.881 49.1695 21.1689 49.3198 21.4815 49.3765L21.6133 49.4009C24.1806 49.8623 26.8096 49.8623 29.377 49.4009L29.5088 49.3765C29.8213 49.3198 30.1092 49.1695 30.3342 48.9453C30.5592 48.7212 30.7107 48.4339 30.7686 48.1216L31.5352 43.9712C33.302 43.3089 34.947 42.3585 36.4033 41.1587L40.3731 42.5698C40.6721 42.6756 40.9961 42.6878 41.3023 42.605C41.6084 42.5221 41.8821 42.3481 42.0869 42.106L42.1748 42.0034C43.874 39.9966 45.1826 37.731 46.0664 35.27L46.1104 35.1431C46.3301 34.5425 46.1494 33.8589 45.6563 33.4341ZM38.9912 25.6313C39.1133 26.3687 39.1768 27.1255 39.1768 27.8823C39.1768 28.6392 39.1133 29.396 38.9912 30.1333L38.669 32.0913L42.3164 35.2114C41.7635 36.4853 41.0655 37.6912 40.2363 38.8052L35.7051 37.1987L34.1719 38.4585C33.0049 39.4155 31.7061 40.1675 30.2998 40.6948L28.4395 41.3931L27.5654 46.1294C26.1864 46.2856 24.7941 46.2856 23.415 46.1294L22.541 41.3833L20.6953 40.6753C19.3037 40.1479 18.0098 39.396 16.8525 38.4438L15.3193 37.1792L10.7588 38.8003C9.92872 37.6821 9.23536 36.4761 8.67872 35.2065L12.3652 32.0571L12.0479 30.104C11.9307 29.3765 11.8672 28.6245 11.8672 27.8823C11.8672 27.1353 11.9258 26.3882 12.0479 25.6606L12.3652 23.7075L8.67872 20.5581C9.23048 19.2837 9.92872 18.0825 10.7588 16.9644L15.3193 18.5854L16.8525 17.3208C18.0098 16.3687 19.3037 15.6167 20.6953 15.0894L22.5459 14.3911L23.4199 9.64502C24.792 9.48877 26.1934 9.48877 27.5703 9.64502L28.4443 14.3813L30.3047 15.0796C31.7061 15.6069 33.0098 16.3589 34.1768 17.3159L35.71 18.5757L40.2412 16.9692C41.0713 18.0874 41.7647 19.2935 42.3213 20.563L38.6738 23.6831L38.9912 25.6313ZM25.5 18.8003C20.7539 18.8003 16.9063 22.6479 16.9063 27.394C16.9063 32.1401 20.7539 35.9878 25.5 35.9878C30.2461 35.9878 34.0938 32.1401 34.0938 27.394C34.0938 22.6479 30.2461 18.8003 25.5 18.8003ZM29.3672 31.2612C28.86 31.7699 28.2572 32.1733 27.5935 32.4481C26.9298 32.723 26.2184 32.8639 25.5 32.8628C24.04 32.8628 22.668 32.2915 21.6328 31.2612C21.1241 30.754 20.7208 30.1512 20.4459 29.4875C20.1711 28.8239 20.0301 28.1124 20.0313 27.394C20.0313 25.9341 20.6025 24.562 21.6328 23.5269C22.668 22.4917 24.04 21.9253 25.5 21.9253C26.96 21.9253 28.332 22.4917 29.3672 23.5269C29.8759 24.0341 30.2792 24.6369 30.5541 25.3005C30.829 25.9642 30.9699 26.6757 30.9688 27.394C30.9688 28.854 30.3975 30.2261 29.3672 31.2612Z" fill="#7367F0"/>
</svg>
