<svg width="66" height="65" viewBox="0 0 66 65" fill="none" xmlns="http://www.w3.org/2000/svg">
<g clip-path="url(#clip0_596_24342)">
<path d="M30.2918 62.2917C30.2918 61.7561 30.4507 61.2324 30.7483 60.7871C31.0459 60.3417 31.4688 59.9945 31.9637 59.7896C32.4586 59.5846 33.0032 59.5309 33.5285 59.6354C34.0539 59.7399 34.5365 59.9979 34.9152 60.3766C35.294 60.7554 35.552 61.238 35.6565 61.7634C35.761 62.2887 35.7073 62.8333 35.5023 63.3282C35.2974 63.823 34.9502 64.246 34.5048 64.5436C34.0595 64.8412 33.5358 65.0001 33.0002 65.0001C32.2819 65.0001 31.593 64.7147 31.0851 64.2068C30.5772 63.6989 30.2918 63.01 30.2918 62.2917ZM42.5741 56.5446C43.0819 56.0368 43.3671 55.348 43.3671 54.6298C43.3671 53.9117 43.0819 53.2229 42.5741 52.7151C40.0347 50.1764 36.5909 48.7502 33.0002 48.7502C29.4094 48.7502 25.9656 50.1764 23.4262 52.7151C22.9329 53.2259 22.6599 53.91 22.6661 54.6201C22.6722 55.3302 22.9571 56.0095 23.4592 56.5116C23.9613 57.0138 24.6406 57.2986 25.3507 57.3048C26.0609 57.311 26.745 57.038 27.2558 56.5446C28.8041 55.0687 30.8611 54.2454 33.0002 54.2454C35.1392 54.2454 37.1962 55.0687 38.7445 56.5446C39.2524 57.0524 39.9412 57.3376 40.6593 57.3376C41.3775 57.3376 42.0662 57.0524 42.5741 56.5446ZM50.236 48.8855C50.7437 48.3776 51.029 47.6888 51.029 46.9707C51.029 46.2525 50.7437 45.5638 50.236 45.0559C45.6613 40.4912 39.4627 37.9277 33.0002 37.9277C26.5377 37.9277 20.3391 40.4912 15.7643 45.0559C15.271 45.5667 14.998 46.2508 15.0042 46.9609C15.0103 47.671 15.2952 48.3503 15.7973 48.8525C16.2995 49.3546 16.9788 49.6395 17.6889 49.6456C18.399 49.6518 19.0831 49.3788 19.5939 48.8855C23.1532 45.337 27.9742 43.3443 33.0002 43.3443C38.0261 43.3443 42.8471 45.337 46.4064 48.8855C46.9143 49.3932 47.6031 49.6784 48.3212 49.6784C49.0394 49.6784 49.7281 49.3932 50.236 48.8855ZM16.715 60.0194C16.7722 59.6684 16.7598 59.3095 16.6784 58.9633C16.597 58.617 16.4481 58.2902 16.2404 58.0015C16.0327 57.7128 15.7701 57.4678 15.4677 57.2806C15.1653 57.0933 14.8289 56.9675 14.4779 56.9103C12.4313 56.5866 10.5297 55.6542 9.02058 54.2345C7.51148 52.8147 6.46486 50.9735 6.01704 48.9505C5.72562 47.016 6.04458 45.0389 6.92952 43.2943C7.81447 41.5496 9.22135 40.1243 10.9543 39.2167C12.2019 38.5322 13.1299 37.3842 13.5379 36.0209C13.9458 34.6577 13.801 33.1886 13.1345 31.9313C12.0814 29.9257 11.4593 27.722 11.3081 25.4618C11.1568 23.2016 11.4798 20.9347 12.2563 18.8066C13.0328 16.6786 14.2457 14.7364 15.817 13.1047C17.3884 11.4731 19.2835 10.188 21.3808 9.3319C23.4781 8.47583 25.7313 8.06773 27.9956 8.13377C30.2599 8.19982 32.4854 8.73855 34.5292 9.7154C36.5731 10.6923 38.3901 12.0856 39.8637 13.8061C41.3373 15.5266 42.4349 17.5362 43.086 19.7059C43.4868 21.0132 44.2009 22.2029 45.1661 23.1714C46.1314 24.14 47.3186 24.8581 48.6245 25.2634C52.1626 26.3405 55.2247 28.5975 57.3005 31.6585C59.3763 34.7194 60.3404 38.3993 60.032 42.0848C59.7899 44.8525 58.8037 47.5032 57.1778 49.756C55.552 52.0088 53.347 53.7799 50.7966 54.8817C50.1651 55.2001 49.6831 55.753 49.4538 56.4221C49.2245 57.0912 49.2661 57.8234 49.5696 58.4623C49.8731 59.1011 50.4145 59.5959 51.078 59.8409C51.7415 60.0858 52.4746 60.0614 53.1204 59.773C56.5405 58.2741 59.4912 55.8774 61.6593 52.8372C63.8274 49.7969 65.1322 46.2265 65.4352 42.5046C65.8442 37.5909 64.5565 32.6854 61.7867 28.6061C59.0169 24.5268 54.9324 21.5202 50.2143 20.0877C49.7497 19.9434 49.328 19.6863 48.9869 19.3395C48.6457 18.9926 48.3956 18.5668 48.2589 18.0998C46.8251 13.4959 43.8965 9.50179 39.9368 6.74998C35.977 3.99818 31.2124 2.64593 26.3975 2.90737C21.5826 3.1688 16.9924 5.02898 13.3539 8.19334C9.71536 11.3577 7.23641 15.6454 6.30954 20.3775C5.36274 25.1656 6.1075 30.1338 8.41663 34.4338C5.69478 35.857 3.48438 38.0934 2.09314 40.8317C0.70189 43.57 0.199025 46.674 0.654543 49.7115C1.27335 52.8751 2.8463 55.7734 5.16175 58.0162C7.4772 60.259 10.424 61.7388 13.6058 62.2565C13.9568 62.3138 14.3157 62.3014 14.662 62.2199C15.0082 62.1385 15.335 61.9897 15.6237 61.7819C15.9124 61.5742 16.1574 61.3116 16.3446 61.0092C16.5319 60.7068 16.6577 60.3705 16.715 60.0194Z" fill="#7367F0"/>
</g>
<defs>
<clipPath id="clip0_596_24342">
<rect width="65" height="65" fill="white" transform="translate(0.5)"/>
</clipPath>
</defs>
</svg>
